<svg width="136" height="87" viewBox="0 0 136 87" fill="none" xmlns="http://www.w3.org/2000/svg">
<g clip-path="url(#clip0_1_109)">
<g clip-path="url(#clip1_1_109)">
<g clip-path="url(#clip2_1_109)">
<g clip-path="url(#clip3_1_109)">
<g clip-path="url(#clip4_1_109)">
<g clip-path="url(#clip5_1_109)">
<g clip-path="url(#clip6_1_109)">
<g clip-path="url(#clip7_1_109)">
<g clip-path="url(#clip8_1_109)">
<path d="M26.1479 22.959H30.1558L26.0838 45.0565H20.5689L17.2022 27.436L13.7393 45.0565H8.38474L4.3768 22.959H8.57712L11.3987 41.6987L15.0219 22.959H19.5108L23.0698 41.6987L26.1479 22.959ZM47.0533 36.1983C47.0533 36.4115 47.0212 36.9658 46.9571 37.8612H36.312C36.4403 39.5028 36.8678 40.6753 37.5945 41.3789C38.3213 42.0824 39.2832 42.4342 40.4803 42.4342C41.2284 42.4342 41.9338 42.3127 42.5964 42.0696C43.2591 41.8223 43.9645 41.4428 44.7126 40.9312L46.412 43.2656C44.5309 44.7793 42.4361 45.5361 40.1276 45.5361C37.5411 45.5361 35.5468 44.7473 34.1445 43.1697C32.7466 41.5921 32.0476 39.4388 32.0476 36.7099C32.0476 34.9831 32.3468 33.431 32.9453 32.0538C33.5439 30.6808 34.4096 29.6042 35.5425 28.8239C36.6754 28.0479 38.0221 27.6599 39.5825 27.6599C41.9552 27.6599 43.7935 28.4103 45.0974 29.9112C46.4013 31.4163 47.0533 33.512 47.0533 36.1983ZM42.9812 35.2069V35.015C42.9812 32.0517 41.8804 30.57 39.6787 30.57C38.674 30.57 37.8874 30.9367 37.3188 31.67C36.7545 32.4077 36.4189 33.5866 36.312 35.2069H42.9812ZM57.2494 22.4793C58.8099 22.4793 60.1672 22.7031 61.3215 23.1508C62.4758 23.5985 63.5553 24.2808 64.5599 25.1975L62.4758 27.5959C61.6849 26.935 60.8876 26.4553 60.0839 26.1569C59.2844 25.8584 58.4251 25.7092 57.506 25.7092C56.4799 25.7092 55.6505 25.9373 55.0178 26.3935C54.3894 26.854 54.0752 27.5 54.0752 28.3314C54.0752 28.8857 54.197 29.3441 54.4407 29.7065C54.6886 30.069 55.1333 30.4101 55.7745 30.7299C56.4158 31.0496 57.367 31.4014 58.6282 31.7852C60.8085 32.4674 62.448 33.3138 63.5467 34.3243C64.6497 35.3391 65.2012 36.8165 65.2012 38.7566C65.2012 40.0784 64.8635 41.251 64.188 42.2743C63.5168 43.2976 62.5506 44.0971 61.2894 44.6727C60.0283 45.2483 58.532 45.5361 56.8006 45.5361C55.1119 45.5361 53.5985 45.2633 52.2604 44.7175C50.9265 44.176 49.7787 43.4362 48.8168 42.4981L50.9971 40.0677C51.8521 40.7926 52.7392 41.3405 53.6583 41.7115C54.5775 42.0867 55.5928 42.2743 56.7044 42.2743C57.9228 42.2743 58.9061 41.9865 59.6542 41.4108C60.4024 40.8352 60.7764 40.0251 60.7764 38.9804C60.7764 38.3409 60.6482 37.8121 60.3917 37.3943C60.1352 36.9807 59.697 36.6076 59.0771 36.275C58.4572 35.9467 57.5594 35.6013 56.3837 35.2389C54.0324 34.514 52.333 33.6399 51.2856 32.6166C50.2382 31.5933 49.7145 30.2502 49.7145 28.5873C49.7145 27.3721 50.0352 26.3061 50.6764 25.3894C51.3177 24.4726 52.2091 23.7584 53.3505 23.2468C54.4963 22.7351 55.7959 22.4793 57.2494 22.4793ZM77.7316 27.6599C79.2279 27.6599 80.4035 28.1182 81.2586 29.035C82.1136 29.9517 82.5411 31.2095 82.5411 32.8085V45.0565H78.437V33.4481C78.437 32.4461 78.2617 31.7425 77.9111 31.3375C77.5563 30.9324 77.0369 30.7299 76.3529 30.7299C75.6688 30.7299 75.0383 30.9473 74.4611 31.3822C73.884 31.8214 73.3282 32.4461 72.7938 33.2562V45.0565H68.6897V21.392L72.7938 20.9763V30.1542C74.1619 28.4913 75.8078 27.6599 77.7316 27.6599ZM99.8554 40.5794C99.8554 41.2403 99.958 41.7242 100.163 42.0312C100.364 42.3425 100.689 42.5834 101.138 42.754L100.272 45.4722C99.3103 45.3869 98.5258 45.1524 97.9187 44.7686C97.3074 44.3849 96.8414 43.7986 96.5208 43.0098C95.9436 43.8626 95.2233 44.4958 94.3597 44.9094C93.4918 45.3272 92.5235 45.5361 91.4547 45.5361C89.7661 45.5361 88.4301 45.0565 87.4468 44.0971C86.4635 43.1377 85.9719 41.8799 85.9719 40.3236C85.9719 38.4901 86.6409 37.0873 87.9791 36.1151C89.3129 35.1472 91.2196 34.6633 93.6992 34.6633H95.8154V33.7039C95.8154 32.6166 95.5653 31.8534 95.0651 31.4142C94.5606 30.9793 93.7526 30.7618 92.6411 30.7618C91.4013 30.7618 89.905 31.0603 88.1522 31.6572L87.1903 28.8751C89.3065 28.0649 91.3585 27.6599 93.3465 27.6599C97.6857 27.6599 99.8554 29.5999 99.8554 33.4801V40.5794ZM92.5449 42.5621C93.9343 42.5621 95.0245 41.8692 95.8154 40.4835V37.0617H94.116C91.4654 37.0617 90.1401 38.0424 90.1401 40.0038C90.1401 40.8139 90.3432 41.4428 90.7493 41.8905C91.1555 42.3382 91.754 42.5621 92.5449 42.5621ZM113.194 27.6919C113.814 27.6919 114.38 27.7665 114.893 27.9157L114.188 31.8811C113.675 31.7532 113.172 31.6892 112.681 31.6892C111.676 31.6892 110.885 32.0453 110.308 32.7573C109.731 33.4737 109.271 34.5673 108.929 36.0384V45.0565H104.825V28.1396H108.384L108.769 31.4654C109.175 30.2502 109.763 29.3164 110.532 28.664C111.302 28.0159 112.189 27.6919 113.194 27.6919ZM131.374 36.1983C131.374 36.4115 131.342 36.9658 131.278 37.8612H120.632C120.761 39.5028 121.188 40.6753 121.915 41.3789C122.642 42.0824 123.604 42.4342 124.801 42.4342C125.549 42.4342 126.254 42.3127 126.917 42.0696C127.58 41.8223 128.285 41.4428 129.033 40.9312L130.732 43.2656C128.851 44.7793 126.757 45.5361 124.448 45.5361C121.862 45.5361 119.867 44.7473 118.465 43.1697C117.067 41.5921 116.368 39.4388 116.368 36.7099C116.368 34.9831 116.667 33.431 117.266 32.0538C117.864 30.6808 118.73 29.6042 119.863 28.8239C120.996 28.0479 122.343 27.6599 123.903 27.6599C126.276 27.6599 128.114 28.4103 129.418 29.9112C130.722 31.4163 131.374 33.512 131.374 36.1983ZM127.302 35.2069V35.015C127.302 32.0517 126.201 30.57 123.999 30.57C122.994 30.57 122.208 30.9367 121.639 31.67C121.075 32.4077 120.739 33.5866 120.632 35.2069H127.302Z" fill="#374151"/>
</g>
</g>
<g clip-path="url(#clip9_1_109)">
<g clip-path="url(#clip10_1_109)">
<path d="M11.7351 57.6397V61.8689L11.486 62.181C10.7687 63.0154 9.7192 63.4326 8.33767 63.4326C7.11154 63.4326 6.1483 63.0271 5.44796 62.216C4.74975 61.405 4.39319 60.2575 4.37829 58.7734V56.5506C4.37829 54.9646 4.69653 53.7767 5.33301 52.9869C5.96949 52.195 6.92209 51.7991 8.19079 51.7991C9.27005 51.7991 10.1151 52.1005 10.7261 52.7035C11.337 53.3043 11.6733 54.1621 11.7351 55.2767H10.311C10.2535 54.5718 10.0566 54.0209 9.72027 53.6239C9.38606 53.2268 8.87836 53.0283 8.19718 53.0283C7.38189 53.0283 6.78479 53.2937 6.40588 53.8245C6.02484 54.3574 5.82687 55.2066 5.81197 56.3722V58.6811C5.81197 59.8212 6.03016 60.6959 6.46654 61.3052C6.90293 61.9146 7.52877 62.2192 8.34406 62.2192C9.11465 62.2192 9.70004 62.0324 10.1002 61.6587L10.311 61.4645V58.853H8.2355V57.6397H11.7351ZM21.7517 63.4326C20.7022 63.4326 19.8965 63.1205 19.3345 62.4963C18.7726 61.87 18.4863 60.9538 18.4756 59.7479V58.7288C18.4756 57.4741 18.7502 56.49 19.2994 55.7767C19.8486 55.0654 20.6139 54.7098 21.5952 54.7098C22.5829 54.7098 23.3205 55.023 23.808 55.6493C24.2976 56.2756 24.5477 57.2522 24.5584 58.5792V59.4836H19.8486V59.6779C19.8486 60.5781 20.0189 61.233 20.3595 61.6428C20.7001 62.0526 21.1897 62.2574 21.8283 62.2574C22.2349 62.2574 22.5925 62.181 22.9012 62.0281C23.2098 61.8753 23.4994 61.6332 23.7697 61.302L24.4881 62.1714C23.89 63.0122 22.9778 63.4326 21.7517 63.4326ZM21.5952 55.8913C21.0226 55.8913 20.599 56.0867 20.3244 56.4773C20.0498 56.868 19.8944 57.4752 19.8582 58.2989H23.179V58.1142C23.1428 57.3159 22.998 56.7459 22.7447 56.4041C22.4935 56.0622 22.1104 55.8913 21.5952 55.8913ZM31.5097 52.8277H32.8795V54.8627H34.1503V55.9773H32.8795V61.1938C32.8795 61.525 32.9348 61.7765 33.0455 61.9485C33.1541 62.1184 33.3403 62.2033 33.6043 62.2033C33.7874 62.2033 33.9726 62.1725 34.1599 62.1109L34.1439 63.2765C33.831 63.3805 33.5117 63.4326 33.186 63.4326C32.6389 63.4326 32.2228 63.2383 31.9375 62.8498C31.6523 62.4612 31.5097 61.9114 31.5097 61.2001V55.9773H30.2229V54.8627H31.5097V52.8277ZM50.6584 54.8627V63.2765H49.279V54.8627H50.6584ZM50.767 52.6334C50.767 52.867 50.702 53.0612 50.5722 53.2162C50.4423 53.3712 50.2444 53.4487 49.9783 53.4487C49.7186 53.4487 49.5238 53.3712 49.3939 53.2162C49.2641 53.0612 49.1992 52.867 49.1992 52.6334C49.1992 52.3999 49.2641 52.2025 49.3939 52.0411C49.5238 51.8797 49.7186 51.7991 49.9783 51.7991C50.238 51.7991 50.4349 51.8808 50.569 52.0443C50.701 52.2078 50.767 52.4041 50.767 52.6334ZM57.6863 54.8627H58.9891L59.0274 55.7735C59.5617 55.0644 60.245 54.7098 61.0773 54.7098C62.5695 54.7098 63.3263 55.7024 63.3476 57.6875V63.2765H61.9746V57.748C61.9746 57.0898 61.8639 56.6217 61.6425 56.3435C61.4211 56.0675 61.0901 55.9295 60.6495 55.9295C60.3067 55.9295 59.9991 56.0431 59.7267 56.2703C59.4521 56.4996 59.2317 56.7979 59.0657 57.1652V63.2765H57.6863V54.8627ZM74.3732 61.1237C74.3732 60.8286 74.2614 60.5738 74.0379 60.3594C73.8144 60.1471 73.3834 59.8987 72.7447 59.6142C72.0018 59.3085 71.4782 59.0473 71.1738 58.8308C70.8694 58.6121 70.6426 58.3637 70.4936 58.0855C70.3425 57.8095 70.2669 57.4794 70.2669 57.0951C70.2669 56.4115 70.5171 55.8425 71.0173 55.3882C71.5197 54.9359 72.1604 54.7098 72.9395 54.7098C73.7612 54.7098 74.4211 54.9476 74.9192 55.4232C75.4195 55.9009 75.6696 56.5123 75.6696 57.2575H74.2966C74.2966 56.8796 74.1688 56.5569 73.9134 56.2894C73.6601 56.024 73.3355 55.8913 72.9395 55.8913C72.5351 55.8913 72.2168 55.9964 71.9848 56.2066C71.7528 56.4147 71.6368 56.6949 71.6368 57.0474C71.6368 57.3276 71.7219 57.5537 71.8922 57.7257C72.0604 57.8955 72.4669 58.1206 73.1119 58.4008C74.1358 58.8 74.8319 59.1906 75.2002 59.5728C75.5685 59.9528 75.7526 60.4358 75.7526 61.0218C75.7526 61.7521 75.5014 62.337 74.999 62.7765C74.4945 63.2139 73.8187 63.4326 72.9714 63.4326C72.0923 63.4326 71.3802 63.181 70.8353 62.6778C70.2903 62.1746 70.0179 61.5366 70.0179 60.7638H71.4037C71.4207 61.2309 71.5633 61.5971 71.8315 61.8625C72.1019 62.1258 72.4818 62.2574 72.9714 62.2574C73.4291 62.2574 73.7772 62.1555 74.0156 61.9517C74.254 61.7458 74.3732 61.4698 74.3732 61.1237ZM88.5056 58.5569V59.4741C88.5056 60.8074 88.2651 61.7999 87.784 62.4517C87.3029 63.1056 86.6239 63.4326 85.7468 63.4326C84.8996 63.4326 84.2472 63.1141 83.7895 62.4772V66.5121H82.4165V54.8627H83.665L83.7352 55.7958C84.1972 55.0718 84.8592 54.7098 85.7213 54.7098C86.6473 54.7098 87.3391 55.0304 87.7968 55.6716C88.2545 56.3149 88.4907 57.2766 88.5056 58.5569ZM87.1326 59.5282V58.6906C87.1326 57.7459 86.9868 57.0495 86.6952 56.6015C86.4057 56.1535 85.9384 55.9295 85.2934 55.9295C84.6335 55.9295 84.1322 56.2586 83.7895 56.9168V61.2925C84.128 61.9358 84.6346 62.2574 85.3094 62.2574C85.9331 62.2574 86.3918 62.0334 86.6856 61.5855C86.9794 61.1375 87.1284 60.4517 87.1326 59.5282ZM96.632 54.8627V63.2765H95.2526V54.8627H96.632ZM96.7437 52.6334C96.7437 52.867 96.6788 53.0612 96.5489 53.2162C96.4191 53.3712 96.2211 53.4487 95.955 53.4487C95.6953 53.4487 95.5006 53.3712 95.3707 53.2162C95.2409 53.0612 95.1759 52.867 95.1759 52.6334C95.1759 52.3999 95.2409 52.2025 95.3707 52.0411C95.5006 51.8797 95.6953 51.7991 95.955 51.7991C96.2147 51.7991 96.4106 51.8808 96.5426 52.0443C96.6767 52.2078 96.7437 52.4041 96.7437 52.6334ZM107.14 54.8181L107.147 56.1557C106.955 56.1196 106.748 56.1015 106.524 56.1015C105.817 56.1015 105.323 56.4869 105.042 57.2575V63.2765H103.663V54.8627H105.004L105.026 55.7194C105.395 55.0463 105.917 54.7098 106.594 54.7098C106.811 54.7098 106.993 54.7459 107.14 54.8181ZM116.25 63.4326C115.201 63.4326 114.395 63.1205 113.833 62.4963C113.271 61.87 112.986 60.9538 112.977 59.7479V58.7288C112.977 57.4741 113.251 56.49 113.798 55.7767C114.347 55.0654 115.112 54.7098 116.094 54.7098C117.081 54.7098 117.819 55.023 118.306 55.6493C118.796 56.2756 119.046 57.2522 119.057 58.5792V59.4836H114.347V59.6779C114.347 60.5781 114.517 61.233 114.858 61.6428C115.199 62.0526 115.688 62.2574 116.327 62.2574C116.733 62.2574 117.091 62.181 117.4 62.0281C117.708 61.8753 117.998 61.6332 118.268 61.302L118.987 62.1714C118.388 63.0122 117.476 63.4326 116.25 63.4326ZM116.094 55.8913C115.523 55.8913 115.1 56.0867 114.823 56.4773C114.548 56.868 114.393 57.4752 114.357 58.2989H117.677V58.1142C117.641 57.3159 117.496 56.7459 117.243 56.4041C116.992 56.0622 116.609 55.8913 116.094 55.8913ZM125.283 59.5537V58.6906C125.283 57.3934 125.526 56.4051 126.011 55.7257C126.497 55.0485 127.195 54.7098 128.106 54.7098C128.911 54.7098 129.539 55.0357 129.99 55.6875V51.3341H131.372V63.2765H130.108L130.038 62.3753C129.586 63.0801 128.939 63.4326 128.096 63.4326C127.224 63.4326 126.539 63.0939 126.043 62.4167C125.547 61.7415 125.294 60.7872 125.283 59.5537ZM126.663 58.6333V59.4741C126.663 60.4167 126.803 61.1099 127.084 61.5536C127.365 61.9974 127.822 62.2192 128.454 62.2192C129.141 62.2192 129.653 61.8742 129.99 61.1842V56.9391C129.636 56.2661 129.128 55.9295 128.464 55.9295C127.829 55.9295 127.371 56.1514 127.09 56.5951C126.81 57.0367 126.667 57.7161 126.663 58.6333Z" fill="#374151"/>
</g>
</g>
</g>
</g>
</g>
</g>
</g>
<path d="M30.6426 15.1784C41.4742 7.35932 54.5041 3.14978 67.8751 3.14978C81.2462 3.14978 94.2761 7.35932 105.108 15.1784H102.887C92.6126 8.04486 80.394 4.22084 67.8751 4.22084C55.3563 4.22084 43.1378 8.04486 32.8633 15.1784H30.6426ZM30.6426 72.31C41.4742 80.1291 54.5041 84.3386 67.8751 84.3386C81.2462 84.3386 94.2761 80.1291 105.108 72.31H102.887C92.6126 79.4435 80.394 83.2675 67.8751 83.2675C55.3563 83.2675 43.1378 79.4435 32.8633 72.31H30.6426Z" fill="#374151"/>
</g>
</g>
<defs>
<clipPath id="clip0_1_109">
<rect width="136" height="87" fill="white"/>
</clipPath>
<clipPath id="clip1_1_109">
<rect width="205.507" height="128.104" fill="white" transform="translate(-34.8784 -20.3076)"/>
</clipPath>
<clipPath id="clip2_1_109">
<rect width="127.003" height="45.5359" fill="white" transform="translate(4.37346 20.9763)"/>
</clipPath>
<clipPath id="clip3_1_109">
<rect width="127.003" height="45.5359" fill="white" transform="translate(4.37346 20.9763)"/>
</clipPath>
<clipPath id="clip4_1_109">
<rect width="127.003" height="45.5359" fill="white" transform="translate(4.37346 20.9763)"/>
</clipPath>
<clipPath id="clip5_1_109">
<rect width="127.003" height="45.5359" fill="white" transform="translate(4.37346 20.9763)"/>
</clipPath>
<clipPath id="clip6_1_109">
<rect width="127.003" height="45.5359" fill="white" transform="translate(4.37346 20.9763)"/>
</clipPath>
<clipPath id="clip7_1_109">
<rect width="127.003" height="24.5599" fill="white" transform="translate(4.37346 20.9763)"/>
</clipPath>
<clipPath id="clip8_1_109">
<rect width="127.003" height="24.5599" fill="white" transform="translate(4.37346 20.9763)"/>
</clipPath>
<clipPath id="clip9_1_109">
<rect width="127.003" height="15.178" fill="white" transform="translate(4.37346 51.3341)"/>
</clipPath>
<clipPath id="clip10_1_109">
<rect width="127.003" height="15.178" fill="white" transform="translate(4.37346 51.3341)"/>
</clipPath>
</defs>
</svg>
