<svg width="95" height="62" viewBox="0 0 95 62" fill="none" xmlns="http://www.w3.org/2000/svg">
<g clip-path="url(#clip0_8_11)">
<g clip-path="url(#clip1_8_11)">
<g clip-path="url(#clip2_8_11)">
<g clip-path="url(#clip3_8_11)">
<g clip-path="url(#clip4_8_11)">
<g clip-path="url(#clip5_8_11)">
<g clip-path="url(#clip6_8_11)">
<path d="M19.1682 16.903H21.9602L19.1236 32.4121H15.2819L12.9366 20.0453L10.5244 32.4121H6.79438L4.00244 16.903H6.92839L8.89391 30.0555L11.4178 16.903H14.5448L17.024 30.0555L19.1682 16.903ZM33.731 26.195C33.731 26.3447 33.7086 26.7337 33.6639 27.3621H26.2486C26.3379 28.5143 26.6357 29.3372 27.142 29.831C27.6483 30.3248 28.3183 30.5717 29.1522 30.5717C29.6733 30.5717 30.1647 30.4864 30.6263 30.3158C31.0879 30.1423 31.5793 29.8759 32.1005 29.5168L33.2842 31.1552C31.9739 32.2176 30.5146 32.7488 28.9065 32.7488C27.1048 32.7488 25.7155 32.1952 24.7387 31.0879C23.7649 29.9807 23.278 28.4694 23.278 26.5541C23.278 25.3421 23.4864 24.2528 23.9033 23.2862C24.3203 22.3226 24.9233 21.567 25.7125 21.0193C26.5017 20.4747 27.4398 20.2024 28.5268 20.2024C30.1796 20.2024 31.4602 20.7291 32.3685 21.7825C33.2768 22.8388 33.731 24.3097 33.731 26.195ZM30.8943 25.4993V25.3646C30.8943 23.2847 30.1275 22.2448 28.5938 22.2448C27.894 22.2448 27.346 22.5022 26.9499 23.0169C26.5568 23.5346 26.323 24.3621 26.2486 25.4993H30.8943ZM40.8336 16.5664C41.9206 16.5664 42.8662 16.7235 43.6702 17.0377C44.4743 17.3519 45.2263 17.8307 45.9261 18.4741L44.4743 20.1575C43.9234 19.6936 43.368 19.357 42.8081 19.1475C42.2512 18.938 41.6526 18.8333 41.0123 18.8333C40.2976 18.8333 39.7198 18.9934 39.2791 19.3136C38.8413 19.6368 38.6224 20.0901 38.6224 20.6737C38.6224 21.0627 38.7073 21.3844 38.877 21.6388C39.0498 21.8932 39.3595 22.1326 39.8062 22.357C40.2529 22.5815 40.9155 22.8284 41.7941 23.0977C43.3129 23.5765 44.455 24.1705 45.2203 24.8798C45.9887 25.592 46.3728 26.629 46.3728 27.9906C46.3728 28.9183 46.1376 29.7412 45.667 30.4595C45.1995 31.1777 44.5264 31.7388 43.6479 32.1428C42.7694 32.5468 41.727 32.7488 40.5209 32.7488C39.3446 32.7488 38.2904 32.5573 37.3582 32.1742C36.4291 31.7942 35.6295 31.275 34.9594 30.6166L36.4782 28.9108C37.0738 29.4195 37.6918 29.8041 38.3321 30.0644C38.9723 30.3278 39.6796 30.4595 40.4539 30.4595C41.3027 30.4595 41.9876 30.2575 42.5088 29.8535C43.03 29.4495 43.2905 28.8809 43.2905 28.1477C43.2905 27.6988 43.2012 27.3277 43.0225 27.0345C42.8438 26.7442 42.5386 26.4823 42.1068 26.2489C41.6749 26.0185 41.0495 25.7761 40.2306 25.5217C38.5926 25.013 37.4089 24.3995 36.6792 23.6813C35.9496 22.963 35.5848 22.0204 35.5848 20.8533C35.5848 20.0004 35.8082 19.2522 36.2549 18.6088C36.7016 17.9654 37.3225 17.4641 38.1176 17.105C38.9158 16.7459 39.8211 16.5664 40.8336 16.5664ZM55.1015 20.2024C56.1439 20.2024 56.9628 20.5241 57.5584 21.1675C58.154 21.8109 58.4518 22.6937 58.4518 23.8159V32.4121H55.5929V24.2648C55.5929 23.5615 55.4708 23.0678 55.2266 22.7835C54.9794 22.4992 54.6176 22.357 54.1411 22.357C53.6646 22.357 53.2253 22.5097 52.8233 22.8149C52.4213 23.1231 52.0341 23.5615 51.6619 24.1301V32.4121H48.8029V15.8033L51.6619 15.5115V21.953C52.6148 20.7859 53.7614 20.2024 55.1015 20.2024ZM70.513 29.2699C70.513 29.7338 70.5845 30.0734 70.7274 30.2889C70.8674 30.5074 71.0937 30.6764 71.4064 30.7961L70.8034 32.7039C70.1333 32.6441 69.5868 32.4795 69.1639 32.2101C68.7381 31.9408 68.4135 31.5293 68.1901 30.9757C67.7881 31.5742 67.2863 32.0186 66.6847 32.3089C66.0802 32.6022 65.4056 32.7488 64.6611 32.7488C63.4848 32.7488 62.5541 32.4121 61.8692 31.7388C61.1842 31.0655 60.8417 30.1827 60.8417 29.0904C60.8417 27.8035 61.3078 26.819 62.2399 26.1367C63.1691 25.4574 64.4973 25.1177 66.2246 25.1177H67.6987V24.4444C67.6987 23.6813 67.5245 23.1456 67.1761 22.8373C66.8247 22.5321 66.2618 22.3795 65.4875 22.3795C64.6239 22.3795 63.5816 22.589 62.3606 23.0079L61.6905 21.0553C63.1646 20.4867 64.5941 20.2024 65.9789 20.2024C69.0016 20.2024 70.513 21.564 70.513 24.2873V29.2699ZM65.4205 30.6615C66.3884 30.6615 67.1478 30.1752 67.6987 29.2026V26.801H66.5149C64.6685 26.801 63.7454 27.4893 63.7454 28.8659C63.7454 29.4345 63.8868 29.8759 64.1697 30.1901C64.4526 30.5044 64.8696 30.6615 65.4205 30.6615ZM79.8046 20.2248C80.2364 20.2248 80.631 20.2772 80.9883 20.3819L80.497 23.165C80.1396 23.0753 79.7897 23.0304 79.4472 23.0304C78.7473 23.0304 78.1964 23.2802 77.7944 23.78C77.3923 24.2828 77.0722 25.0504 76.8339 26.0828V32.4121H73.975V20.539H76.4542L76.7223 22.8733C77.0052 22.0204 77.4147 21.365 77.9507 20.9071C78.4868 20.4522 79.1047 20.2248 79.8046 20.2248ZM92.4688 26.195C92.4688 26.3447 92.4464 26.7337 92.4018 27.3621H84.9864C85.0757 28.5143 85.3735 29.3372 85.8798 29.831C86.3861 30.3248 87.0561 30.5717 87.89 30.5717C88.4112 30.5717 88.9025 30.4864 89.3641 30.3158C89.8257 30.1423 90.3171 29.8759 90.8383 29.5168L92.0221 31.1552C90.7117 32.2176 89.2525 32.7488 87.6443 32.7488C85.8426 32.7488 84.4533 32.1952 83.4765 31.0879C82.5027 29.9807 82.0158 28.4694 82.0158 26.5541C82.0158 25.3421 82.2242 24.2528 82.6412 23.2862C83.0581 22.3226 83.6611 21.567 84.4503 21.0193C85.2395 20.4747 86.1776 20.2024 87.2646 20.2024C88.9174 20.2024 90.198 20.7291 91.1063 21.7825C92.0146 22.8388 92.4688 24.3097 92.4688 26.195ZM89.6322 25.4993V25.3646C89.6322 23.2847 88.8653 22.2448 87.3316 22.2448C86.6318 22.2448 86.0838 22.5022 85.6877 23.0169C85.2946 23.5346 85.0608 24.3621 84.9864 25.4993H89.6322Z" fill="#374151"/>
</g>
</g>
<g clip-path="url(#clip7_8_11)">
<g clip-path="url(#clip8_8_11)">
<path d="M9.12817 41.2437V44.2119L8.95468 44.431C8.45496 45.0166 7.72391 45.3094 6.76153 45.3094C5.90741 45.3094 5.23641 45.0248 4.74855 44.4556C4.26218 43.8864 4.0138 43.081 4.00342 42.0394V40.4793C4.00342 39.3662 4.22511 38.5325 4.66848 37.9782C5.11185 37.4223 5.77543 37.1444 6.65922 37.1444C7.41103 37.1444 7.99972 37.356 8.4253 37.7792C8.85088 38.2009 9.08517 38.8029 9.12817 39.5852H8.13614C8.09611 39.0905 7.95894 38.7038 7.72465 38.4252C7.49184 38.1465 7.13818 38.0072 6.66367 38.0072C6.09573 38.0072 5.67979 38.1935 5.41584 38.566C5.15041 38.94 5.0125 39.536 5.00212 40.3541V41.9746C5.00212 42.7748 5.15412 43.3887 5.4581 43.8163C5.76209 44.244 6.19805 44.4578 6.76598 44.4578C7.30278 44.4578 7.71056 44.3267 7.98934 44.0644L8.13614 43.9281V42.0953H6.69036V41.2437H9.12817ZM16.1058 45.3094C15.3747 45.3094 14.8135 45.0904 14.422 44.6523C14.0305 44.2127 13.8311 43.5697 13.8236 42.7233V42.0081C13.8236 41.1275 14.0149 40.4368 14.3975 39.9361C14.7801 39.437 15.3132 39.1874 15.9968 39.1874C16.6848 39.1874 17.1986 39.4071 17.5382 39.8467C17.8793 40.2863 18.0535 40.9717 18.0609 41.9031V42.5378H14.7801V42.6742C14.7801 43.306 14.8987 43.7657 15.136 44.0533C15.3732 44.3408 15.7143 44.4846 16.1591 44.4846C16.4424 44.4846 16.6915 44.431 16.9065 44.3237C17.1215 44.2164 17.3232 44.0465 17.5115 43.8141L18.012 44.4243C17.5953 45.0144 16.9599 45.3094 16.1058 45.3094ZM15.9968 40.0166C15.5979 40.0166 15.3028 40.1537 15.1115 40.4279C14.9202 40.702 14.812 41.1282 14.7868 41.7064H17.1V41.5767C17.0748 41.0164 16.974 40.6164 16.7975 40.3765C16.6225 40.1365 16.3556 40.0166 15.9968 40.0166ZM22.9032 37.8664H23.8574V39.2946H24.7427V40.0769H23.8574V43.7381C23.8574 43.9706 23.896 44.1471 23.9731 44.2678C24.0487 44.387 24.1784 44.4466 24.3623 44.4466C24.4898 44.4466 24.6189 44.425 24.7493 44.3818L24.7382 45.1999C24.5202 45.2729 24.2978 45.3094 24.0709 45.3094C23.6898 45.3094 23.3999 45.1731 23.2012 44.9004C23.0025 44.6277 22.9032 44.2417 22.9032 43.7426V40.0769H22.0068V39.2946H22.9032V37.8664ZM36.2422 39.2946V45.1999H35.2813V39.2946H36.2422ZM36.3179 37.7301C36.3179 37.894 36.2726 38.0303 36.1822 38.1391C36.0917 38.2479 35.9538 38.3022 35.7685 38.3022C35.5876 38.3022 35.4519 38.2479 35.3614 38.1391C35.271 38.0303 35.2257 37.894 35.2257 37.7301C35.2257 37.5661 35.271 37.4276 35.3614 37.3143C35.4519 37.2011 35.5876 37.1444 35.7685 37.1444C35.9494 37.1444 36.0865 37.2018 36.18 37.3166C36.2719 37.4313 36.3179 37.5691 36.3179 37.7301ZM41.1379 39.2946H42.0454L42.0721 39.9339C42.4443 39.4362 42.9203 39.1874 43.5001 39.1874C44.5396 39.1874 45.0667 39.884 45.0816 41.2772V45.1999H44.1251V41.3197C44.1251 40.8578 44.048 40.5292 43.8938 40.334C43.7396 40.1403 43.509 40.0434 43.202 40.0434C42.9633 40.0434 42.749 40.1231 42.5592 40.2826C42.3679 40.4435 42.2144 40.6529 42.0988 40.9107V45.1999H41.1379V39.2946ZM52.762 43.6889C52.762 43.4818 52.6842 43.303 52.5285 43.1525C52.3728 43.0035 52.0725 42.8291 51.6276 42.6295C51.1101 42.4149 50.7453 42.2316 50.5333 42.0796C50.3212 41.9261 50.1633 41.7518 50.0595 41.5566C49.9542 41.3629 49.9016 41.1312 49.9016 40.8615C49.9016 40.3817 50.0758 39.9823 50.4243 39.6634C50.7742 39.3461 51.2206 39.1874 51.7633 39.1874C52.3357 39.1874 52.7954 39.3543 53.1424 39.688C53.4908 40.0233 53.6651 40.4524 53.6651 40.9755H52.7086C52.7086 40.7102 52.6197 40.4837 52.4417 40.296C52.2653 40.1097 52.0391 40.0166 51.7633 40.0166C51.4816 40.0166 51.2599 40.0904 51.0982 40.2379C50.9366 40.3839 50.8558 40.5806 50.8558 40.828C50.8558 41.0246 50.9151 41.1833 51.0337 41.304C51.1509 41.4232 51.4341 41.5812 51.8834 41.7779C52.5967 42.058 53.0816 42.3322 53.3381 42.6004C53.5946 42.8671 53.7229 43.2061 53.7229 43.6174C53.7229 44.13 53.5479 44.5405 53.198 44.849C52.8465 45.1559 52.3757 45.3094 51.7856 45.3094C51.1731 45.3094 50.6771 45.1328 50.2975 44.7797C49.9179 44.4265 49.7281 43.9787 49.7281 43.4364H50.6934C50.7053 43.7642 50.8046 44.0212 50.9915 44.2075C51.1798 44.3922 51.4445 44.4846 51.7856 44.4846C52.1044 44.4846 52.3468 44.4131 52.5129 44.2701C52.679 44.1255 52.762 43.9318 52.762 43.6889ZM62.6067 41.8874V42.5311C62.6067 43.4669 62.4391 44.1635 62.104 44.621C61.7689 45.0799 61.2959 45.3094 60.6849 45.3094C60.0947 45.3094 59.6402 45.0859 59.3214 44.6389V47.4708H58.365V39.2946H59.2347L59.2836 39.9495C59.6054 39.4414 60.0666 39.1874 60.6671 39.1874C61.3122 39.1874 61.7941 39.4124 62.1129 39.8624C62.4317 40.3139 62.5963 40.9889 62.6067 41.8874ZM61.6503 42.5691V41.9813C61.6503 41.3182 61.5487 40.8294 61.3455 40.515C61.1439 40.2006 60.8184 40.0434 60.3691 40.0434C59.9094 40.0434 59.5602 40.2744 59.3214 40.7363V43.8074C59.5572 44.2589 59.9101 44.4846 60.3802 44.4846C60.8147 44.4846 61.1342 44.3274 61.3389 44.013C61.5435 43.6986 61.6473 43.2173 61.6503 42.5691ZM68.2675 39.2946V45.1999H67.3066V39.2946H68.2675ZM68.3454 37.7301C68.3454 37.894 68.3001 38.0303 68.2097 38.1391C68.1192 38.2479 67.9813 38.3022 67.796 38.3022C67.6151 38.3022 67.4794 38.2479 67.3889 38.1391C67.2985 38.0303 67.2532 37.894 67.2532 37.7301C67.2532 37.5661 67.2985 37.4276 67.3889 37.3143C67.4794 37.2011 67.6151 37.1444 67.796 37.1444C67.9769 37.1444 68.1133 37.2018 68.2052 37.3166C68.2987 37.4313 68.3454 37.5691 68.3454 37.7301ZM75.5876 39.2634L75.5921 40.2021C75.4586 40.1768 75.3141 40.1641 75.1584 40.1641C74.666 40.1641 74.322 40.4346 74.1263 40.9755V45.1999H73.1654V39.2946H74.0996L74.1152 39.8959C74.3717 39.4235 74.7357 39.1874 75.2073 39.1874C75.3585 39.1874 75.4853 39.2127 75.5876 39.2634ZM81.9335 45.3094C81.2025 45.3094 80.6412 45.0904 80.2498 44.6523C79.8583 44.2127 79.6596 43.5697 79.6536 42.7233V42.0081C79.6536 41.1275 79.8442 40.4368 80.2253 39.9361C80.6079 39.437 81.1409 39.1874 81.8245 39.1874C82.5126 39.1874 83.0264 39.4071 83.366 39.8467C83.707 40.2863 83.8813 40.9717 83.8887 41.9031V42.5378H80.6079V42.6742C80.6079 43.306 80.7265 43.7657 80.9637 44.0533C81.201 44.3408 81.5421 44.4846 81.9869 44.4846C82.2701 44.4846 82.5193 44.431 82.7343 44.3237C82.9493 44.2164 83.151 44.0465 83.3393 43.8141L83.8397 44.4243C83.4231 45.0144 82.7877 45.3094 81.9335 45.3094ZM81.8245 40.0166C81.4271 40.0166 81.1321 40.1537 80.9393 40.4279C80.748 40.702 80.6397 41.1282 80.6145 41.7064H82.9278V41.5767C82.9026 41.0164 82.8017 40.6164 82.6253 40.3765C82.4503 40.1365 82.1834 40.0166 81.8245 40.0166ZM88.226 42.587V41.9813C88.226 41.0708 88.3951 40.3772 88.7332 39.9004C89.0713 39.425 89.5576 39.1874 90.1923 39.1874C90.7528 39.1874 91.1903 39.4161 91.5046 39.8735V36.8181H92.4678V45.1999H91.5869L91.538 44.5673C91.2236 45.062 90.7728 45.3094 90.1856 45.3094C89.5777 45.3094 89.1009 45.0717 88.7554 44.5964C88.4099 44.1225 88.2335 43.4527 88.226 42.587ZM89.1869 41.941V42.5311C89.1869 43.1927 89.2848 43.6792 89.4805 43.9907C89.6763 44.3021 89.9943 44.4578 90.4348 44.4578C90.9137 44.4578 91.2704 44.2157 91.5046 43.7314V40.752C91.2585 40.2796 90.9041 40.0434 90.4414 40.0434C89.9995 40.0434 89.6807 40.1991 89.485 40.5106C89.2893 40.8205 89.1899 41.2973 89.1869 41.941Z" fill="#374151"/>
</g>
</g>
</g>
</g>
</g>
</g>
</g>
<path d="M22.2991 11.4423C29.8444 5.95446 38.921 3 48.2354 3C57.5497 3 66.6263 5.95446 74.1716 11.4423H72.6247C65.4675 6.4356 56.956 3.75172 48.2354 3.75172C39.5147 3.75172 31.0032 6.4356 23.846 11.4423H22.2991ZM22.2991 51.54C29.8444 57.0278 38.921 59.9823 48.2354 59.9823C57.5497 59.9823 66.6263 57.0278 74.1716 51.54H72.6247C65.4675 56.5467 56.956 59.2305 48.2354 59.2305C39.5147 59.2305 31.0032 56.5467 23.846 51.54H22.2991Z" fill="#374151"/>
<defs>
<clipPath id="clip0_8_11">
<rect width="88.4708" height="31.9593" fill="white" transform="translate(4 15.5115)"/>
</clipPath>
<clipPath id="clip1_8_11">
<rect width="88.4708" height="31.9593" fill="white" transform="translate(4 15.5115)"/>
</clipPath>
<clipPath id="clip2_8_11">
<rect width="88.4708" height="31.9593" fill="white" transform="translate(4 15.5115)"/>
</clipPath>
<clipPath id="clip3_8_11">
<rect width="88.4708" height="31.9593" fill="white" transform="translate(4 15.5115)"/>
</clipPath>
<clipPath id="clip4_8_11">
<rect width="88.4708" height="31.9593" fill="white" transform="translate(4 15.5115)"/>
</clipPath>
<clipPath id="clip5_8_11">
<rect width="88.4708" height="17.2373" fill="white" transform="translate(4 15.5115)"/>
</clipPath>
<clipPath id="clip6_8_11">
<rect width="88.4708" height="17.2373" fill="white" transform="translate(4 15.5115)"/>
</clipPath>
<clipPath id="clip7_8_11">
<rect width="88.4708" height="10.6527" fill="white" transform="translate(4 36.8181)"/>
</clipPath>
<clipPath id="clip8_8_11">
<rect width="88.4708" height="10.6527" fill="white" transform="translate(4 36.8181)"/>
</clipPath>
</defs>
</svg>
