<svg width="95" height="62" viewBox="0 0 95 62" fill="none" xmlns="http://www.w3.org/2000/svg">
<g clip-path="url(#clip0_1_76)">
<g clip-path="url(#clip1_1_76)">
<g clip-path="url(#clip2_1_76)">
<g clip-path="url(#clip3_1_76)">
<g clip-path="url(#clip4_1_76)">
<g clip-path="url(#clip5_1_76)">
<g clip-path="url(#clip6_1_76)">
<g clip-path="url(#clip7_1_76)">
<g clip-path="url(#clip8_1_76)">
<path d="M18.3459 16.4483H21.1378L18.3012 31.9574H14.4595L12.1143 19.5905L9.70207 31.9574H5.97205L3.18011 16.4483H6.10606L8.07158 29.6007L10.5955 16.4483H13.7225L16.2017 29.6007L18.3459 16.4483ZM32.9086 25.7402C32.9086 25.8899 32.8863 26.2789 32.8416 26.9074H25.4262C25.5156 28.0595 25.8134 28.8825 26.3197 29.3762C26.8259 29.87 27.496 30.1169 28.3298 30.1169C28.851 30.1169 29.3424 30.0316 29.804 29.861C30.2656 29.6875 30.757 29.4211 31.2781 29.062L32.4619 30.7005C31.1516 31.7628 29.6923 32.294 28.0842 32.294C26.2824 32.294 24.8932 31.7404 23.9164 30.6331C22.9425 29.5259 22.4556 28.0146 22.4556 26.0994C22.4556 24.8874 22.6641 23.7981 23.081 22.8315C23.4979 21.8678 24.101 21.1122 24.8902 20.5646C25.6794 20.0199 26.6175 19.7476 27.7045 19.7476C29.3573 19.7476 30.6378 20.2743 31.5462 21.3277C32.4545 22.3841 32.9086 23.8549 32.9086 25.7402ZM30.072 25.0445V24.9098C30.072 22.83 29.3052 21.79 27.7715 21.79C27.0716 21.79 26.5237 22.0474 26.1276 22.5621C25.7345 23.0798 25.5007 23.9073 25.4262 25.0445H30.072ZM40.0113 16.1116C41.0983 16.1116 42.0438 16.2687 42.8479 16.5829C43.652 16.8971 44.4039 17.376 45.1038 18.0194L43.652 19.7027C43.101 19.2388 42.5456 18.9022 41.9858 18.6927C41.4289 18.4832 40.8303 18.3785 40.19 18.3785C39.4752 18.3785 38.8975 18.5386 38.4567 18.8588C38.019 19.182 37.8001 19.6354 37.8001 20.2189C37.8001 20.608 37.885 20.9297 38.0547 21.184C38.2274 21.4384 38.5372 21.6778 38.9839 21.9023C39.4306 22.1267 40.0932 22.3736 40.9717 22.6429C42.4905 23.1217 43.6326 23.7158 44.398 24.425C45.1663 25.1372 45.5505 26.1742 45.5505 27.5358C45.5505 28.4635 45.3152 29.2865 44.8447 30.0047C44.3771 30.7229 43.7041 31.284 42.8256 31.688C41.947 32.092 40.9047 32.294 39.6986 32.294C38.5223 32.294 37.468 32.1025 36.5359 31.7194C35.6067 31.3394 34.8071 30.8202 34.1371 30.1618L35.6559 28.456C36.2515 28.9648 36.8694 29.3493 37.5097 29.6097C38.15 29.873 38.8573 30.0047 39.6316 30.0047C40.4803 30.0047 41.1653 29.8027 41.6865 29.3987C42.2076 28.9947 42.4682 28.4261 42.4682 27.6929C42.4682 27.244 42.3789 26.8729 42.2002 26.5797C42.0215 26.2894 41.7162 26.0275 41.2844 25.7941C40.8526 25.5637 40.2272 25.3213 39.4082 25.0669C37.7703 24.5582 36.5865 23.9447 35.8569 23.2265C35.1273 22.5083 34.7625 21.5656 34.7625 20.3985C34.7625 19.5456 34.9858 18.7974 35.4325 18.154C35.8792 17.5106 36.5002 17.0094 37.2953 16.6503C38.0934 16.2911 38.9988 16.1116 40.0113 16.1116ZM54.2792 19.7476C55.3215 19.7476 56.1405 20.0693 56.7361 20.7127C57.3317 21.3561 57.6295 22.2389 57.6295 23.3611V31.9574H54.7706V23.81C54.7706 23.1068 54.6485 22.613 54.4043 22.3287C54.1571 22.0444 53.7953 21.9023 53.3188 21.9023C52.8423 21.9023 52.403 22.0549 52.001 22.3601C51.5989 22.6684 51.2118 23.1068 50.8395 23.6754V31.9574H47.9806V15.3485L50.8395 15.0567V21.4983C51.7925 20.3311 52.9391 19.7476 54.2792 19.7476ZM69.6907 28.8151C69.6907 29.279 69.7621 29.6186 69.9051 29.8341C70.0451 30.0526 70.2714 30.2217 70.5841 30.3414L69.981 32.2491C69.311 32.1893 68.7645 32.0247 68.3416 31.7554C67.9157 31.486 67.5911 31.0745 67.3678 30.5209C66.9657 31.1194 66.4639 31.5638 65.8624 31.8541C65.2578 32.1474 64.5833 32.294 63.8388 32.294C62.6624 32.294 61.7318 31.9574 61.0468 31.284C60.3619 30.6107 60.0194 29.7279 60.0194 28.6356C60.0194 27.3488 60.4855 26.3642 61.4176 25.6819C62.3468 25.0026 63.675 24.6629 65.4023 24.6629H66.8764V23.9896C66.8764 23.2265 66.7022 22.6908 66.3537 22.3826C66.0023 22.0773 65.4395 21.9247 64.6652 21.9247C63.8015 21.9247 62.7592 22.1342 61.5382 22.5531L60.8682 20.6005C62.3423 20.0319 63.7718 19.7476 65.1566 19.7476C68.1793 19.7476 69.6907 21.1092 69.6907 23.8325V28.8151ZM64.5982 30.2067C65.566 30.2067 66.3255 29.7204 66.8764 28.7478V26.3462H65.6926C63.8462 26.3462 62.923 27.0345 62.923 28.4111C62.923 28.9797 63.0645 29.4211 63.3474 29.7354C63.6303 30.0496 64.0472 30.2067 64.5982 30.2067ZM78.9822 19.77C79.414 19.77 79.8086 19.8224 80.166 19.9271L79.6746 22.7103C79.3172 22.6205 78.9673 22.5756 78.6248 22.5756C77.925 22.5756 77.3741 22.8255 76.972 23.3252C76.57 23.828 76.2498 24.5956 76.0116 25.628V31.9574H73.1527V20.0843H75.6319L75.8999 22.4185C76.1828 21.5656 76.5923 20.9102 77.1284 20.4523C77.6644 19.9975 78.2824 19.77 78.9822 19.77ZM91.6464 25.7402C91.6464 25.8899 91.6241 26.2789 91.5794 26.9074H84.164C84.2534 28.0595 84.5512 28.8825 85.0575 29.3762C85.5637 29.87 86.2338 30.1169 87.0677 30.1169C87.5888 30.1169 88.0802 30.0316 88.5418 29.861C89.0034 29.6875 89.4948 29.4211 90.0159 29.062L91.1997 30.7005C89.8894 31.7628 88.4301 32.294 86.822 32.294C85.0202 32.294 83.631 31.7404 82.6542 30.6331C81.6803 29.5259 81.1934 28.0146 81.1934 26.0994C81.1934 24.8874 81.4019 23.7981 81.8188 22.8315C82.2357 21.8678 82.8388 21.1122 83.628 20.5646C84.4172 20.0199 85.3553 19.7476 86.4423 19.7476C88.0951 19.7476 89.3756 20.2743 90.284 21.3277C91.1923 22.3841 91.6464 23.8549 91.6464 25.7402ZM88.8098 25.0445V24.9098C88.8098 22.83 88.043 21.79 86.5093 21.79C85.8094 21.79 85.2615 22.0474 84.8654 22.5621C84.4723 23.0798 84.2385 23.9073 84.164 25.0445H88.8098Z" fill="white"/>
</g>
</g>
<g clip-path="url(#clip9_1_76)">
<g clip-path="url(#clip10_1_76)">
<path d="M8.30577 40.7889V43.7572L8.13228 43.9762C7.63255 44.5618 6.90151 44.8546 5.93913 44.8546C5.085 44.8546 4.41401 44.57 3.92615 44.0008C3.43977 43.4316 3.1914 42.6262 3.18102 41.5846V40.0245C3.18102 38.9114 3.4027 38.0777 3.84608 37.5234C4.28945 36.9676 4.95303 36.6897 5.83681 36.6897C6.58862 36.6897 7.17732 36.9013 7.6029 37.3245C8.02848 37.7461 8.26277 38.3481 8.30577 39.1304H7.31374C7.2737 38.6357 7.13654 38.2491 6.90225 37.9704C6.66944 37.6918 6.31578 37.5524 5.84126 37.5524C5.27333 37.5524 4.85739 37.7387 4.59344 38.1112C4.32801 38.4852 4.1901 39.0813 4.17972 39.8993V41.5198C4.17972 42.32 4.33171 42.9339 4.6357 43.3616C4.93968 43.7892 5.37564 44.003 5.94358 44.003C6.48037 44.003 6.88816 43.8719 7.16694 43.6097L7.31374 43.4733V41.6405H5.86795V40.7889H8.30577ZM15.2834 44.8546C14.5523 44.8546 13.991 44.6356 13.5996 44.1975C13.2081 43.7579 13.0087 43.1149 13.0012 42.2686V41.5533C13.0012 40.6727 13.1925 39.982 13.5751 39.4814C13.9577 38.9822 14.4908 38.7326 15.1744 38.7326C15.8624 38.7326 16.3762 38.9524 16.7158 39.392C17.0569 39.8315 17.2311 40.517 17.2385 41.4483V42.0831H13.9577V42.2194C13.9577 42.8512 14.0763 43.3109 14.3136 43.5985C14.5508 43.8861 14.8919 44.0299 15.3367 44.0299C15.62 44.0299 15.8691 43.9762 16.0841 43.8689C16.2991 43.7616 16.5008 43.5918 16.6891 43.3593L17.1896 43.9695C16.7729 44.5596 16.1375 44.8546 15.2834 44.8546ZM15.1744 39.5618C14.7755 39.5618 14.4804 39.6989 14.2891 39.9731C14.0978 40.2473 13.9896 40.6734 13.9644 41.2516H16.2776V41.1219C16.2524 40.5617 16.1516 40.1616 15.9751 39.9217C15.8001 39.6818 15.5332 39.5618 15.1744 39.5618ZM22.0808 37.4116H23.035V38.8399H23.9203V39.6222H23.035V43.2833C23.035 43.5158 23.0736 43.6924 23.1507 43.8131C23.2263 43.9323 23.356 43.9919 23.5399 43.9919C23.6674 43.9919 23.7964 43.9703 23.9269 43.927L23.9158 44.7451C23.6978 44.8181 23.4754 44.8546 23.2485 44.8546C22.8674 44.8546 22.5775 44.7183 22.3788 44.4456C22.1801 44.1729 22.0808 43.787 22.0808 43.2878V39.6222H21.1844V38.8399H22.0808V37.4116ZM35.4198 38.8399V44.7451H34.4589V38.8399H35.4198ZM35.4954 37.2753C35.4954 37.4392 35.4502 37.5755 35.3598 37.6843C35.2693 37.7931 35.1314 37.8475 34.946 37.8475C34.7651 37.8475 34.6295 37.7931 34.539 37.6843C34.4486 37.5755 34.4033 37.4392 34.4033 37.2753C34.4033 37.1114 34.4486 36.9728 34.539 36.8595C34.6295 36.7463 34.7651 36.6897 34.946 36.6897C35.127 36.6897 35.2641 36.747 35.3575 36.8618C35.4495 36.9765 35.4954 37.1143 35.4954 37.2753ZM40.3155 38.8399H41.223L41.2497 39.4791C41.6219 38.9814 42.0979 38.7326 42.6777 38.7326C43.7172 38.7326 44.2443 39.4292 44.2591 40.8224V44.7451H43.3027V40.8649C43.3027 40.403 43.2256 40.0744 43.0714 39.8792C42.9172 39.6855 42.6866 39.5886 42.3796 39.5886C42.1409 39.5886 41.9266 39.6684 41.7368 39.8278C41.5455 39.9887 41.392 40.1981 41.2764 40.4559V44.7451H40.3155V38.8399ZM51.9396 43.2342C51.9396 43.027 51.8618 42.8482 51.7061 42.6977C51.5503 42.5487 51.2501 42.3744 50.8052 42.1747C50.2877 41.9601 49.9229 41.7768 49.7109 41.6249C49.4988 41.4714 49.3409 41.297 49.2371 41.1018C49.1318 40.9081 49.0792 40.6764 49.0792 40.4067C49.0792 39.9269 49.2534 39.5276 49.6019 39.2087C49.9518 38.8913 50.3982 38.7326 50.9409 38.7326C51.5133 38.7326 51.973 38.8995 52.32 39.2333C52.6684 39.5685 52.8427 39.9977 52.8427 40.5207H51.8862C51.8862 40.2555 51.7972 40.029 51.6193 39.8412C51.4428 39.655 51.2167 39.5618 50.9409 39.5618C50.6592 39.5618 50.4375 39.6356 50.2758 39.7831C50.1142 39.9291 50.0334 40.1258 50.0334 40.3732C50.0334 40.5699 50.0927 40.7286 50.2113 40.8493C50.3285 40.9685 50.6117 41.1264 51.061 41.3231C51.7743 41.6032 52.2592 41.8774 52.5157 42.1456C52.7722 42.4124 52.9005 42.7514 52.9005 43.1626C52.9005 43.6752 52.7255 44.0857 52.3756 44.3942C52.0241 44.7011 51.5533 44.8546 50.9631 44.8546C50.3507 44.8546 49.8547 44.6781 49.4751 44.3249C49.0955 43.9717 48.9057 43.524 48.9057 42.9816H49.871C49.8829 43.3094 49.9822 43.5664 50.1691 43.7527C50.3574 43.9375 50.6221 44.0299 50.9631 44.0299C51.282 44.0299 51.5244 43.9583 51.6905 43.8153C51.8566 43.6707 51.9396 43.477 51.9396 43.2342ZM61.7843 41.4326V42.0764C61.7843 43.0121 61.6167 43.7087 61.2816 44.1662C60.9465 44.6252 60.4734 44.8546 59.8625 44.8546C59.2723 44.8546 58.8178 44.6311 58.499 44.1841V47.016H57.5426V38.8399H58.4123L58.4612 39.4948C58.783 38.9866 59.2442 38.7326 59.8447 38.7326C60.4898 38.7326 60.9717 38.9576 61.2905 39.4076C61.6093 39.8591 61.7739 40.5341 61.7843 41.4326ZM60.8279 42.1143V41.5265C60.8279 40.8634 60.7263 40.3747 60.5231 40.0603C60.3214 39.7458 59.996 39.5886 59.5467 39.5886C59.087 39.5886 58.7378 39.8196 58.499 40.2815V43.3526C58.7348 43.8041 59.0877 44.0299 59.5578 44.0299C59.9923 44.0299 60.3118 43.8727 60.5164 43.5582C60.7211 43.2438 60.8249 42.7625 60.8279 42.1143ZM67.4451 38.8399V44.7451H66.4842V38.8399H67.4451ZM67.5229 37.2753C67.5229 37.4392 67.4777 37.5755 67.3873 37.6843C67.2968 37.7931 67.1589 37.8475 66.9735 37.8475C66.7926 37.8475 66.657 37.7931 66.5665 37.6843C66.4761 37.5755 66.4308 37.4392 66.4308 37.2753C66.4308 37.1114 66.4761 36.9728 66.5665 36.8595C66.657 36.7463 66.7926 36.6897 66.9735 36.6897C67.1545 36.6897 67.2909 36.747 67.3828 36.8618C67.4762 36.9765 67.5229 37.1143 67.5229 37.2753ZM74.7652 38.8086L74.7697 39.7473C74.6362 39.722 74.4916 39.7093 74.3359 39.7093C73.8436 39.7093 73.4996 39.9798 73.3039 40.5207V44.7451H72.343V38.8399H73.2772L73.2927 39.4411C73.5493 38.9688 73.9133 38.7326 74.3849 38.7326C74.5361 38.7326 74.6629 38.7579 74.7652 38.8086ZM81.1111 44.8546C80.3801 44.8546 79.8188 44.6356 79.4273 44.1975C79.0359 43.7579 78.8372 43.1149 78.8312 42.2686V41.5533C78.8312 40.6727 79.0218 39.982 79.4029 39.4814C79.7854 38.9822 80.3185 38.7326 81.0021 38.7326C81.6902 38.7326 82.204 38.9524 82.5436 39.392C82.8846 39.8315 83.0588 40.517 83.0663 41.4483V42.0831H79.7854V42.2194C79.7854 42.8512 79.9041 43.3109 80.1413 43.5985C80.3786 43.8861 80.7196 44.0299 81.1645 44.0299C81.4477 44.0299 81.6968 43.9762 81.9119 43.8689C82.1269 43.7616 82.3285 43.5918 82.5169 43.3593L83.0173 43.9695C82.6006 44.5596 81.9652 44.8546 81.1111 44.8546ZM81.0021 39.5618C80.6047 39.5618 80.3096 39.6989 80.1169 39.9731C79.9256 40.2473 79.8173 40.6734 79.7921 41.2516H82.1054V41.1219C82.0802 40.5617 81.9793 40.1616 81.8029 39.9217C81.6279 39.6818 81.361 39.5618 81.0021 39.5618ZM87.4036 42.1322V41.5265C87.4036 40.6161 87.5727 39.9224 87.9108 39.4456C88.2489 38.9703 88.7352 38.7326 89.3699 38.7326C89.9304 38.7326 90.3679 38.9613 90.6822 39.4188V36.3633H91.6453V44.7451H90.7645L90.7156 44.1126C90.4012 44.6073 89.9504 44.8546 89.3632 44.8546C88.7552 44.8546 88.2785 44.617 87.933 44.1416C87.5875 43.6678 87.411 42.998 87.4036 42.1322ZM88.3645 41.4863V42.0764C88.3645 42.738 88.4624 43.2245 88.6581 43.5359C88.8539 43.8473 89.1719 44.003 89.6123 44.003C90.0913 44.003 90.4479 43.7609 90.6822 43.2766V40.2972C90.4361 39.8248 90.0817 39.5886 89.619 39.5886C89.1771 39.5886 88.8583 39.7444 88.6626 40.0558C88.4668 40.3657 88.3675 40.8426 88.3645 41.4863Z" fill="white"/>
</g>
</g>
</g>
</g>
</g>
</g>
</g>
<path d="M21.4767 10.9875C29.0221 5.49969 38.0987 2.54523 47.413 2.54523C56.7273 2.54523 65.804 5.49969 73.3493 10.9875H71.8024C64.6451 5.98083 56.1337 3.29695 47.413 3.29695C38.6924 3.29695 30.1809 5.98083 23.0237 10.9875H21.4767ZM21.4767 51.0852C29.0221 56.573 38.0987 59.5275 47.413 59.5275C56.7273 59.5275 65.804 56.573 73.3493 51.0852H71.8024C64.6451 56.0919 56.1337 58.7758 47.413 58.7758C38.6924 58.7758 30.1809 56.0919 23.0237 51.0852H21.4767Z" fill="white"/>
</g>
</g>
<defs>
<clipPath id="clip0_1_76">
<rect width="95" height="62" fill="white"/>
</clipPath>
<clipPath id="clip1_1_76">
<rect width="143.157" height="89.9093" fill="white" transform="translate(-24.1653 -13.9183)"/>
</clipPath>
<clipPath id="clip2_1_76">
<rect width="88.4708" height="31.9593" fill="white" transform="translate(3.17763 15.0567)"/>
</clipPath>
<clipPath id="clip3_1_76">
<rect width="88.4708" height="31.9593" fill="white" transform="translate(3.17763 15.0567)"/>
</clipPath>
<clipPath id="clip4_1_76">
<rect width="88.4708" height="31.9593" fill="white" transform="translate(3.17763 15.0567)"/>
</clipPath>
<clipPath id="clip5_1_76">
<rect width="88.4708" height="31.9593" fill="white" transform="translate(3.17763 15.0567)"/>
</clipPath>
<clipPath id="clip6_1_76">
<rect width="88.4708" height="31.9593" fill="white" transform="translate(3.17763 15.0567)"/>
</clipPath>
<clipPath id="clip7_1_76">
<rect width="88.4708" height="17.2373" fill="white" transform="translate(3.17763 15.0567)"/>
</clipPath>
<clipPath id="clip8_1_76">
<rect width="88.4708" height="17.2373" fill="white" transform="translate(3.17763 15.0567)"/>
</clipPath>
<clipPath id="clip9_1_76">
<rect width="88.4708" height="10.6527" fill="white" transform="translate(3.17763 36.3633)"/>
</clipPath>
<clipPath id="clip10_1_76">
<rect width="88.4708" height="10.6527" fill="white" transform="translate(3.17763 36.3633)"/>
</clipPath>
</defs>
</svg>
