<svg xmlns="http://www.w3.org/2000/svg" version="1.1" xmlns:xlink="http://www.w3.org/1999/xlink" xmlns:svgjs="http://svgjs.dev/svgjs" width="1000" height="1000" viewBox="0 0 1000 1000"><rect width="1000" height="1000" fill="#000000"></rect><g transform="matrix(0.7,0,0,0.7,149.57575757575756,282.1265587044535)"><svg viewBox="0 0 396 247" data-background-color="#00ffef" preserveAspectRatio="xMidYMid meet" height="623" width="1000" xmlns="http://www.w3.org/2000/svg" xmlns:xlink="http://www.w3.org/1999/xlink"><g id="tight-bounds" transform="matrix(1,0,0,1,0.2400000000000091,-0.09999999999999432)"><svg viewBox="0 0 395.52 247.2" height="247.2" width="395.52"><g><svg></svg></g><g><svg viewBox="0 0 395.52 247.2" height="247.2" width="395.52"><g transform="matrix(1,0,0,1,75.54432,79.66497899576616)"><svg viewBox="0 0 244.43135999999998 87.87004200846766" height="87.87004200846766" width="244.43135999999998"><g><svg viewBox="0 0 244.43135999999998 87.87004200846766" height="87.87004200846766" width="244.43135999999998"><g><svg viewBox="0 0 244.43135999999998 87.87004200846766" height="87.87004200846766" width="244.43135999999998"><g><svg viewBox="0 0 244.43135999999998 87.87004200846766" height="87.87004200846766" width="244.43135999999998"><g><svg viewBox="0 0 244.43135999999998 87.87004200846766" height="87.87004200846766" width="244.43135999999998"><g><svg viewBox="0 0 244.43135999999998 47.39290191365816" height="47.39290191365816" width="244.43135999999998"><g transform="matrix(1,0,0,1,0,0)"><svg width="244.43135999999998" viewBox="0.8500000238418579 -37.650001525878906 198.0399932861328 38.400001525878906" height="47.39290191365816" data-palette-color="#374151"><path d="M34.8-34.55L41.05-34.55 34.7 0 26.1 0 20.85-27.55 15.45 0 7.1 0 0.85-34.55 7.4-34.55 11.8-5.25 17.45-34.55 24.45-34.55 30-5.25 34.8-34.55ZM67.4-13.85Q67.4-13.35 67.25-11.25L67.25-11.25 50.65-11.25Q50.95-7.4 52.65-5.75 54.35-4.1 57.15-4.1L57.15-4.1Q58.9-4.1 60.45-4.67 62-5.25 63.75-6.45L63.75-6.45 66.4-2.8Q62 0.75 56.6 0.75L56.6 0.75Q50.55 0.75 47.27-2.95 44-6.65 44-13.05L44-13.05Q44-17.1 45.4-20.33 46.8-23.55 49.45-25.38 52.1-27.2 55.75-27.2L55.75-27.2Q61.3-27.2 64.35-23.68 67.4-20.15 67.4-13.85L67.4-13.85ZM61.05-15.4L61.05-15.7Q61.05-22.65 55.9-22.65L55.9-22.65Q53.55-22.65 52.22-20.93 50.9-19.2 50.65-15.4L50.65-15.4 61.05-15.4ZM83.3-35.3Q86.95-35.3 89.65-34.25 92.35-33.2 94.7-31.05L94.7-31.05 91.45-27.3Q89.6-28.85 87.72-29.55 85.85-30.25 83.7-30.25L83.7-30.25Q81.3-30.25 79.82-29.18 78.35-28.1 78.35-26.15L78.35-26.15Q78.35-24.85 78.92-24 79.5-23.15 81-22.4 82.5-21.65 85.45-20.75L85.45-20.75Q90.55-19.15 93.12-16.78 95.7-14.4 95.7-9.85L95.7-9.85Q95.7-6.75 94.12-4.35 92.55-1.95 89.6-0.6 86.65 0.75 82.6 0.75L82.6 0.75Q78.65 0.75 75.52-0.53 72.4-1.8 70.15-4L70.15-4 73.55-7.8Q75.55-6.1 77.7-5.23 79.85-4.35 82.45-4.35L82.45-4.35Q85.3-4.35 87.05-5.7 88.8-7.05 88.8-9.5L88.8-9.5Q88.8-11 88.2-11.98 87.6-12.95 86.15-13.73 84.7-14.5 81.95-15.35L81.95-15.35Q76.45-17.05 74-19.45 71.55-21.85 71.55-25.75L71.55-25.75Q71.55-28.6 73.05-30.75 74.55-32.9 77.22-34.1 79.9-35.3 83.3-35.3L83.3-35.3ZM115.24-27.2Q118.74-27.2 120.74-25.05 122.74-22.9 122.74-19.15L122.74-19.15 122.74 0 116.34 0 116.34-18.15Q116.34-20.5 115.52-21.45 114.69-22.4 113.09-22.4L113.09-22.4Q111.49-22.4 110.14-21.38 108.79-20.35 107.54-18.45L107.54-18.45 107.54 0 101.14 0 101.14-37 107.54-37.65 107.54-23.3Q110.74-27.2 115.24-27.2L115.24-27.2ZM149.74-7Q149.74-5.45 150.22-4.73 150.69-4 151.74-3.6L151.74-3.6 150.39 0.65Q148.14 0.45 146.72-0.45 145.29-1.35 144.54-3.2L144.54-3.2Q143.19-1.2 141.17-0.23 139.14 0.75 136.64 0.75L136.64 0.75Q132.69 0.75 130.39-1.5 128.09-3.75 128.09-7.4L128.09-7.4Q128.09-11.7 131.22-13.98 134.34-16.25 140.14-16.25L140.14-16.25 143.44-16.25 143.44-17.75Q143.44-20.3 142.27-21.33 141.09-22.35 138.49-22.35L138.49-22.35Q135.59-22.35 131.49-20.95L131.49-20.95 129.99-25.3Q134.94-27.2 139.59-27.2L139.59-27.2Q149.74-27.2 149.74-18.1L149.74-18.1 149.74-7ZM138.34-3.9Q141.59-3.9 143.44-7.15L143.44-7.15 143.44-12.5 140.79-12.5Q134.59-12.5 134.59-7.9L134.59-7.9Q134.59-6 135.54-4.95 136.49-3.9 138.34-3.9L138.34-3.9ZM170.54-27.15Q171.99-27.15 173.19-26.8L173.19-26.8 172.09-20.6Q170.89-20.9 169.74-20.9L169.74-20.9Q167.39-20.9 166.04-19.23 164.69-17.55 163.89-14.1L163.89-14.1 163.89 0 157.49 0 157.49-26.45 163.04-26.45 163.64-21.25Q164.59-24.1 166.39-25.63 168.19-27.15 170.54-27.15L170.54-27.15ZM198.89-13.85Q198.89-13.35 198.74-11.25L198.74-11.25 182.14-11.25Q182.44-7.4 184.14-5.75 185.84-4.1 188.64-4.1L188.64-4.1Q190.39-4.1 191.94-4.67 193.49-5.25 195.24-6.45L195.24-6.45 197.89-2.8Q193.49 0.75 188.09 0.75L188.09 0.75Q182.04 0.75 178.76-2.95 175.49-6.65 175.49-13.05L175.49-13.05Q175.49-17.1 176.89-20.33 178.29-23.55 180.94-25.38 183.59-27.2 187.24-27.2L187.24-27.2Q192.79-27.2 195.84-23.68 198.89-20.15 198.89-13.85L198.89-13.85ZM192.54-15.4L192.54-15.7Q192.54-22.65 187.39-22.65L187.39-22.65Q185.04-22.65 183.71-20.93 182.39-19.2 182.14-15.4L182.14-15.4 192.54-15.4Z" opacity="1" transform="matrix(1,0,0,1,0,0)" fill="#ffffff" class="undefined-text-0" data-fill-palette-color="primary" id="text-0"></path></svg></g></svg></g><g transform="matrix(1,0,0,1,0,58.581228625826924)"><svg viewBox="0 0 244.43135999999998 29.28881338264074" height="29.28881338264074" width="244.43135999999998"><g transform="matrix(1,0,0,1,0,0)"><svg width="244.43135999999998" viewBox="3.0299999713897705 -37.5 397.7200012207031 47.65999984741211" height="29.28881338264074" data-palette-color="#374151"><path d="M26.07-17.7L26.07-4.42 25.29-3.44Q21.92 0.49 15.43 0.49L15.43 0.49Q9.67 0.49 6.38-3.33 3.1-7.15 3.03-14.14L3.03-14.14 3.03-21.12Q3.03-28.59 6.02-32.31 9.01-36.04 14.97-36.04L14.97-36.04Q20.04-36.04 22.91-33.2 25.78-30.37 26.07-25.12L26.07-25.12 21.61-25.12Q21.34-28.44 19.76-30.31 18.19-32.18 14.99-32.18L14.99-32.18Q11.16-32.18 9.38-29.68 7.59-27.17 7.52-21.68L7.52-21.68 7.52-14.43Q7.52-9.06 9.57-6.19 11.62-3.32 15.45-3.32L15.45-3.32Q19.07-3.32 20.95-5.08L20.95-5.08 21.61-5.69 21.61-13.89 15.11-13.89 15.11-17.7 26.07-17.7ZM57.44 0.49L57.44 0.49Q52.51 0.49 49.87-2.45 47.23-5.4 47.18-11.08L47.18-11.08 47.18-14.28Q47.18-20.19 49.76-23.55 52.34-26.9 56.95-26.9L56.95-26.9Q61.59-26.9 63.88-23.95 66.18-21 66.23-14.75L66.23-14.75 66.23-11.91 51.48-11.91 51.48-11.3Q51.48-7.06 53.08-5.13 54.68-3.2 57.68-3.2L57.68-3.2Q59.59-3.2 61.04-3.92 62.49-4.64 63.76-6.2L63.76-6.2 66.01-3.47Q63.2 0.49 57.44 0.49ZM56.95-23.19L56.95-23.19Q54.26-23.19 52.97-21.35 51.68-19.51 51.51-15.63L51.51-15.63 61.91-15.63 61.91-16.21Q61.74-19.97 60.55-21.58 59.37-23.19 56.95-23.19ZM88-32.81L92.29-32.81 92.29-26.42 96.27-26.42 96.27-22.92 92.29-22.92 92.29-6.54Q92.29-4.98 92.81-4.17 93.32-3.37 94.56-3.37L94.56-3.37Q95.42-3.37 96.3-3.66L96.3-3.66 96.25 0Q94.78 0.49 93.25 0.49L93.25 0.49Q90.68 0.49 89.34-1.34 88-3.17 88-6.52L88-6.52 88-22.92 83.97-22.92 83.97-26.42 88-26.42 88-32.81ZM147.97-26.42L147.97 0 143.65 0 143.65-26.42 147.97-26.42ZM148.31-33.42L148.31-33.42Q148.31-32.32 147.7-31.59 147.09-30.86 145.84-30.86L145.84-30.86Q144.62-30.86 144.01-31.59 143.4-32.32 143.4-33.42 143.4-34.52 144.01-35.28 144.62-36.04 145.84-36.04 147.06-36.04 147.69-35.27 148.31-34.5 148.31-33.42ZM169.98-26.42L174.06-26.42 174.18-23.56Q176.69-26.9 180.6-26.9L180.6-26.9Q187.61-26.9 187.71-17.55L187.71-17.55 187.71 0 183.41 0 183.41-17.36Q183.41-20.46 182.37-21.77 181.33-23.07 179.26-23.07L179.26-23.07Q177.65-23.07 176.37-22 175.08-20.92 174.3-19.19L174.3-19.19 174.3 0 169.98 0 169.98-26.42ZM222.24-6.76L222.24-6.76Q222.24-8.15 221.19-9.16 220.14-10.16 217.14-11.5L217.14-11.5Q213.65-12.94 212.22-13.96 210.79-14.99 210.09-16.3 209.38-17.6 209.38-19.41L209.38-19.41Q209.38-22.63 211.73-24.77 214.09-26.9 217.75-26.9L217.75-26.9Q221.61-26.9 223.95-24.66 226.3-22.41 226.3-18.9L226.3-18.9 222-18.9Q222-20.68 220.8-21.94 219.61-23.19 217.75-23.19L217.75-23.19Q215.85-23.19 214.76-22.2 213.67-21.22 213.67-19.56L213.67-19.56Q213.67-18.24 214.47-17.43 215.26-16.63 218.29-15.31L218.29-15.31Q223.1-13.43 224.83-11.63 226.56-9.84 226.56-7.08L226.56-7.08Q226.56-3.64 224.2-1.57 221.83 0.49 217.85 0.49L217.85 0.49Q213.72 0.49 211.16-1.88 208.6-4.25 208.6-7.89L208.6-7.89 212.94-7.89Q213.02-5.69 214.28-4.44 215.55-3.2 217.85-3.2L217.85-3.2Q220-3.2 221.12-4.16 222.24-5.13 222.24-6.76ZM266.5-14.82L266.5-11.94Q266.5-5.66 264.24-2.59 261.98 0.49 257.86 0.49L257.86 0.49Q253.88 0.49 251.73-2.51L251.73-2.51 251.73 10.16 247.43 10.16 247.43-26.42 251.34-26.42 251.56-23.49Q253.73-26.9 257.78-26.9L257.78-26.9Q262.13-26.9 264.28-23.88 266.43-20.85 266.5-14.82L266.5-14.82ZM262.2-11.77L262.2-14.4Q262.2-18.85 260.83-20.96 259.47-23.07 256.44-23.07L256.44-23.07Q253.34-23.07 251.73-19.97L251.73-19.97 251.73-6.23Q253.32-3.2 256.49-3.2L256.49-3.2Q259.42-3.2 260.8-5.31 262.18-7.42 262.2-11.77L262.2-11.77ZM291.95-26.42L291.95 0 287.63 0 287.63-26.42 291.95-26.42ZM292.3-33.42L292.3-33.42Q292.3-32.32 291.69-31.59 291.08-30.86 289.83-30.86L289.83-30.86Q288.61-30.86 288-31.59 287.39-32.32 287.39-33.42 287.39-34.52 288-35.28 288.61-36.04 289.83-36.04 291.05-36.04 291.67-35.27 292.3-34.5 292.3-33.42ZM324.86-26.56L324.88-22.36Q323.98-22.53 322.93-22.53L322.93-22.53Q319.61-22.53 318.29-18.9L318.29-18.9 318.29 0 313.97 0 313.97-26.42 318.17-26.42 318.24-23.73Q319.97-26.9 323.15-26.9L323.15-26.9Q324.17-26.9 324.86-26.56L324.86-26.56ZM353.39 0.49L353.39 0.49Q348.46 0.49 345.82-2.45 343.18-5.4 343.14-11.08L343.14-11.08 343.14-14.28Q343.14-20.19 345.71-23.55 348.29-26.9 352.9-26.9L352.9-26.9Q357.54-26.9 359.83-23.95 362.13-21 362.18-14.75L362.18-14.75 362.18-11.91 347.43-11.91 347.43-11.3Q347.43-7.06 349.03-5.13 350.63-3.2 353.63-3.2L353.63-3.2Q355.54-3.2 356.99-3.92 358.44-4.64 359.71-6.2L359.71-6.2 361.96-3.47Q359.15 0.49 353.39 0.49ZM352.9-23.19L352.9-23.19Q350.22-23.19 348.92-21.35 347.63-19.51 347.46-15.63L347.46-15.63 357.86-15.63 357.86-16.21Q357.69-19.97 356.5-21.58 355.32-23.19 352.9-23.19ZM381.68-11.69L381.68-14.4Q381.68-20.51 383.96-23.71 386.24-26.9 390.52-26.9L390.52-26.9Q394.3-26.9 396.42-23.83L396.42-23.83 396.42-37.5 400.75-37.5 400.75 0 396.79 0 396.57-2.83Q394.45 0.49 390.49 0.49L390.49 0.49Q386.39 0.49 384.06-2.7 381.73-5.88 381.68-11.69L381.68-11.69ZM386-14.58L386-11.94Q386-7.5 387.32-5.41 388.64-3.32 391.61-3.32L391.61-3.32Q394.84-3.32 396.42-6.57L396.42-6.57 396.42-19.9Q394.76-23.07 391.64-23.07L391.64-23.07Q388.66-23.07 387.34-20.98 386.02-18.9 386-14.58L386-14.58Z" opacity="1" transform="matrix(1,0,0,1,0,0)" fill="#ffffff" class="undefined-text-1" data-fill-palette-color="secondary" id="text-1"></path></svg></g></svg></g></svg></g></svg></g><g></g></svg></g></svg></g></svg></g><g><path d="M126.102 68.477A122.216 122.216 0 0 1 269.418 68.477L265.144 68.477A117.942 117.942 0 0 0 130.376 68.477L126.102 68.477M126.102 178.723A122.216 122.216 0 0 0 269.418 178.723L265.144 178.723A117.942 117.942 0 0 1 130.376 178.723L126.102 178.723" fill="#374151" stroke="transparent" data-fill-palette-color="tertiary"></path></g></svg></g><defs></defs></svg><rect width="395.52" height="247.2" fill="none" stroke="none" visibility="hidden"></rect></g></svg></g></svg>